<svg width="18" height="19" viewBox="0 0 18 19" fill="none" xmlns="http://www.w3.org/2000/svg">
<path d="M17.7188 9.79004C17.7188 14.6053 13.8152 18.5088 9 18.5088C4.18475 18.5088 0.28125 14.6053 0.28125 9.79004C0.28125 4.97479 4.18475 1.07129 9 1.07129C13.8152 1.07129 17.7188 4.97479 17.7188 9.79004ZM7.99151 14.4065L14.4603 7.9378C14.6799 7.71814 14.6799 7.36197 14.4603 7.14232L13.6648 6.34684C13.4451 6.12714 13.089 6.12714 12.8693 6.34684L7.59375 11.6223L5.13074 9.1593C4.91108 8.93964 4.55491 8.93964 4.33522 9.1593L3.53974 9.95478C3.32009 10.1744 3.32009 10.5306 3.53974 10.7503L7.19599 14.4065C7.41568 14.6262 7.77182 14.6262 7.99151 14.4065Z" fill="#172D55"/>
</svg>
