<svg width="52" height="52" viewBox="0 0 52 52" fill="none" xmlns="http://www.w3.org/2000/svg">
<rect width="52" height="52" rx="26" fill="white"/>
<path d="M39.9102 12.4416L33.8164 11.0353C33.1543 10.883 32.4746 11.2287 32.2051 11.8498L29.3926 18.4123C29.1465 18.9865 29.3105 19.6603 29.7969 20.0529L33.3477 22.9591C31.2383 27.4533 27.5527 31.1915 22.9648 33.3419L20.0586 29.7912C19.6602 29.3048 18.9922 29.1408 18.418 29.3869L11.8555 32.1994C11.2285 32.4748 10.8828 33.1544 11.0352 33.8166L12.4414 39.9103C12.5879 40.5431 13.1504 41.0001 13.8125 41.0001C28.8184 41.0001 41 28.8419 41 13.8126C41 13.1564 40.5488 12.588 39.9102 12.4416Z" fill="#DA2626"/>
</svg>
