<svg width="32" height="32" viewBox="0 0 32 32" fill="none" xmlns="http://www.w3.org/2000/svg">
  <!-- Background rounded rectangle -->
  <rect width="32" height="32" rx="6" fill="#F5F5F5"/>
  
  <!-- Navy blue card section -->
  <rect x="3" y="6" width="15" height="14" rx="2" fill="#1E3A5F"/>
  
  <!-- Stars -->
  <path d="M6 8L6.5 9.5L8 9.5L6.8 10.3L7.3 12L6 11L4.7 12L5.2 10.3L4 9.5L5.5 9.5L6 8Z" fill="white"/>
  <path d="M10 8L10.5 9.5L12 9.5L10.8 10.3L11.3 12L10 11L8.7 12L9.2 10.3L8 9.5L9.5 9.5L10 8Z" fill="white"/>
  <path d="M14 8L14.5 9.5L16 9.5L14.8 10.3L15.3 12L14 11L12.7 12L13.2 10.3L12 9.5L13.5 9.5L14 8Z" fill="white"/>
  
  <!-- Chip card -->
  <rect x="5" y="12" width="4" height="5" rx="0.5" fill="#C9A961"/>
  <line x1="7" y1="12" x2="7" y2="17" stroke="#1E3A5F" stroke-width="0.5"/>
  <line x1="5" y1="14.5" x2="9" y2="14.5" stroke="#1E3A5F" stroke-width="0.5"/>
  
  <!-- Eagle head (white) -->
  <path d="M13 13C13 13 16 12 18 14C18 14 19 13 19 15C19 15 20 15 20 16.5C20 16.5 19 18 17 18C17 18 15 19 13 17C13 17 12 15 13 13Z" fill="white"/>
  
  <!-- Eagle beak -->
  <path d="M13 15L11 16L13 16.5Z" fill="#C9A961"/>
  
  <!-- Eagle eye -->
  <circle cx="15" cy="14.5" r="0.8" fill="#1E3A5F"/>
  
  <!-- Red wing stripes -->
  <path d="M18 16C18 16 22 18 25 22C25 22 26 20 24 18C24 18 21 16 18 16Z" fill="#D32F2F"/>
  <path d="M18 18C18 18 21 20 23 24C23 24 24 22 22 20C22 20 20 18 18 18Z" fill="#D32F2F"/>
  <path d="M18 20C18 20 20 22 21 26C21 26 22 24 20 22C20 22 19 20 18 20Z" fill="#D32F2F"/>
  
  <!-- White stripes between red -->
  <path d="M19 17C19 17 22 19 24 22" stroke="white" stroke-width="0.8" stroke-linecap="round"/>
  <path d="M19 19C19 19 21 21 22 24" stroke="white" stroke-width="0.8" stroke-linecap="round"/>
</svg>
