<svg width="265" height="50" viewBox="0 0 265 50" fill="none" xmlns="http://www.w3.org/2000/svg">
<path d="M72.4463 0C73.1402 1.05777 73.575 2.13471 73.7965 3.29215C74.5897 7.43746 73.2606 10.9346 70.4426 13.9314C68.1713 16.3469 65.3251 17.9703 62.4538 19.5468C59.4825 21.1783 56.4651 22.7334 53.5576 24.4717C50.4602 26.3241 47.9976 28.8314 46.7667 32.3142C46.2757 33.7038 46.0125 35.174 45.6456 36.6074C45.7088 36.6285 45.772 36.6494 45.8352 36.6702C45.902 36.5571 45.9764 36.4477 46.0344 36.3303C47.2286 33.9169 48.6155 31.6363 50.6094 29.7844C52.4374 28.0865 54.5441 26.795 56.7536 25.6675C59.8571 24.0838 62.9942 22.5648 66.0751 20.9392C68.2227 19.8062 70.2363 18.4393 71.8672 16.6143C72.7708 15.6029 73.5339 14.4664 74.3909 13.3462C74.4143 14.5277 74.5085 15.7496 74.4459 16.9635C74.3547 18.7372 73.9693 20.4617 73.2374 22.0947C72.2353 24.3299 70.5094 25.8818 68.4535 27.1018C65.8309 28.6581 62.9537 29.6502 60.1345 30.7653C57.255 31.9044 54.3961 33.0738 51.8262 34.8469C49.2253 36.6416 47.4021 39.0342 46.2797 41.9921C46.5511 41.6887 46.8242 41.3868 47.0935 41.0817C50.0531 37.7286 53.8556 35.7149 57.9913 34.238C60.7241 33.2622 63.4732 32.3321 66.1994 31.3388C68.068 30.658 69.7345 29.6099 71.3058 28.2443C71.0006 30.1797 70.2169 31.8091 69.178 33.3363C67.2656 36.1474 64.5732 37.873 61.3919 38.8894C58.4014 39.8448 55.3649 40.6634 52.4005 41.6923C48.0151 43.2147 44.0094 45.4689 40.3795 48.3733C39.9753 48.6967 39.5572 49.0198 39.2226 49.4092C38.8717 49.8173 38.5644 49.7927 38.1238 49.5779C35.7239 48.4087 33.3163 47.2551 30.9017 46.1164C28.4053 44.9391 25.898 43.7853 23.3672 42.608C26.444 40.9531 29.2149 38.9008 31.3556 36.0629C31.5246 37.2187 30.7676 40.6718 29.392 43.3321C33.5367 41.6805 36.8326 39.224 38.7398 35.1619C39.875 35.9091 41.0846 37.8879 41.4608 39.494C41.7465 38.4423 42.1151 37.405 42.3004 36.3358C42.6584 34.2679 42.9191 32.1829 43.2093 30.1036C43.7922 25.9256 45.6159 22.4643 48.9505 19.7969C52.152 17.2357 55.7082 15.2494 59.2285 13.1943C61.8608 11.6576 64.447 10.0469 66.772 8.05653C69.3234 5.87251 71.3212 3.29446 72.4463 0Z" fill="#C72127"/>
<path d="M21.6652 17.2089C21.5959 17.0672 21.6392 16.8699 21.6322 16.6986C21.7798 16.7124 21.9495 16.6866 22.0744 16.7489C22.5356 16.9806 22.9828 17.2402 23.4718 17.51C22.9082 17.8801 21.9079 17.6882 21.6652 17.2089ZM29.2414 20.1896C27.2582 19.2138 25.4187 18.0896 24.0526 16.2646C23.2707 15.2198 22.1368 14.6799 20.7377 14.9724C19.616 15.2076 18.803 15.9186 17.9933 16.6485C15.7655 18.6603 15.0235 22.0681 16.2578 24.6768C16.3896 24.9536 16.6253 25.1819 16.8681 25.5071C17.2652 23.4521 18.5151 22.0888 19.5918 21.6252C21.9409 20.615 24.4045 20.2362 26.9459 20.5702C28.4179 20.7639 29.8758 21.0684 31.4987 21.352C30.663 20.9195 29.9593 20.5425 29.2414 20.1896Z" fill="#D3B253"/>
<path d="M30.0436 22.5836C26.6133 22.1894 23.1903 22.3578 19.7723 22.7681C23.1797 21.6665 26.6013 21.4392 30.0436 22.5836Z" fill="#D3B253"/>
<path d="M24.0396 16.2639C25.4094 18.0972 27.2538 19.2266 29.2427 20.2069C29.9623 20.5614 30.6682 20.9401 31.5062 21.3746C29.8789 21.0897 28.4169 20.7836 26.9409 20.5892C24.3923 20.2539 21.9222 20.6343 19.5666 21.6491C18.4869 22.1148 17.2336 23.4841 16.8356 25.5487C16.592 25.222 16.3558 24.9926 16.2234 24.7146C14.9857 22.094 15.7297 18.6708 17.9637 16.6496C18.7756 15.9164 19.5908 15.2021 20.7156 14.9658C22.1185 14.672 23.2555 15.2141 24.0396 16.2639ZM28.6481 15.7632C28.6951 15.3289 28.7454 14.8963 28.8099 14.3314C29.1159 14.8024 29.3748 15.183 29.6146 15.5739C29.8738 15.9945 30.2354 16.302 30.7308 16.2725C31.2523 16.2395 31.6088 15.8799 31.7652 15.3915C31.9304 14.8754 32.0311 14.3383 32.1598 13.8101C32.9926 14.01 32.982 15.0195 32.8099 15.7702C32.6065 16.6515 31.833 16.8998 31.0976 17.0475C30.59 17.15 30.0268 17.0841 29.5086 16.9885C28.9037 16.8756 28.5855 16.356 28.6481 15.7632ZM19.8152 22.7545C23.2121 21.6855 26.6229 21.465 30.0546 22.5755C26.6349 22.1932 23.2225 22.3564 19.8152 22.7545ZM50.4499 14.7C50.4256 14.5557 50.4499 14.4045 50.4463 14.2551C50.4048 12.6824 50.516 11.087 50.2916 9.54038C49.7267 5.6532 46.2029 2.7406 42.2565 2.7406C30.8924 2.73892 16.1314 2.73702 4.76555 2.74397C4.36224 2.74397 3.95199 2.78231 3.55732 2.85877C1.62931 3.22884 0.000501576 5.22035 0.000501576 7.18764C0.000501576 16.4341 -0.00139482 25.6825 0.00218727 34.9308C0.00387297 37.5982 2.28989 39.8714 4.95666 39.873C9.85046 39.8747 18.1428 39.8644 23.0364 39.8869C23.6553 39.8886 24.0725 39.7513 24.4777 39.2336C27.0313 35.9718 28.5335 32.3746 28.1997 28.1536C28.1666 27.7365 28.1127 27.3212 28.0623 26.8293C30.7135 28.6001 32.9786 30.6161 34.173 33.6118C34.3675 29.2101 32.4519 25.931 28.862 23.5816C30.6821 23.4791 32.5039 23.3782 34.4111 23.2722C34.2164 22.9038 34.0704 22.5702 33.874 22.2677C33.0221 20.949 31.8138 20.014 30.5205 19.1677C29.9537 18.7976 29.4182 18.3822 28.8672 17.9877C28.8881 17.9407 28.9073 17.8938 28.9281 17.847C30.6456 18.1929 32.3754 18.41 33.5853 16.7903C34.2164 15.9459 34.5449 14.9344 33.9207 13.8467C35.6591 13.6938 37.3768 13.5426 39.096 13.3913C38.4076 13.0802 37.714 12.9673 37.0673 12.7291C34.418 11.7579 31.786 11.982 29.1418 12.7344C27.7823 13.1203 26.4194 13.499 25.0392 13.7928C23.9996 14.0135 22.9738 13.7597 21.7603 13.433C22.3185 12.7588 22.741 12.161 23.2503 11.6484C25.7641 9.12165 28.909 7.99372 32.3771 7.63249C34.1869 7.44461 35.9948 7.49327 37.8046 7.72454C39.8871 7.99035 41.8863 8.50303 43.7517 9.47445C44.8087 10.0253 45.7977 10.6803 46.7401 11.645H45.0954C46.4722 13.5042 47.8526 15.3656 49.2085 17.197C50.2724 16.7522 50.6481 15.8711 50.4499 14.7Z" fill="#172D56"/>
<path d="M7.78908 10.116V12.7536H3.9484C3.9484 12.6125 3.94497 12.4749 3.94325 12.3426C3.93617 12.04 3.9308 11.7545 3.9557 11.4744C4.01773 10.7537 4.5824 10.176 5.27112 10.1297C5.84846 10.0902 6.42043 10.0989 7.02609 10.1072C7.27398 10.1127 7.53239 10.116 7.78908 10.116Z" fill="#D3B253"/>
<path d="M6.36734 11.5769L6.64835 12.4409L5.9126 11.9066L5.17684 12.4409L5.45806 11.5769L4.72062 11.0426H5.63159L5.9126 10.1769L6.19382 11.0426H7.1031L6.36734 11.5769ZM14.4609 12.368C14.4575 12.5068 14.4556 12.6491 14.4539 12.8001H11.1239V16.3217H8.77086V14.7846L9.47359 15.2948L9.36253 15.6346L9.19258 16.1605L9.91614 15.6346L9.92834 15.6262L9.94033 15.6346L10.6658 16.1605L10.4956 15.6346L10.3846 15.2948L11.1205 14.7603H10.2093L10.1521 14.5868L9.92834 13.8965L9.70433 14.5868L9.64712 14.7603H8.77086V11.0651L9.47359 11.5769L9.19258 12.4407L9.92834 11.9066L10.6658 12.4407L10.3846 11.5769L10.7247 11.3305L11.1205 11.0426H10.2093L9.92834 10.1769L9.64712 11.0426H8.77086V10.1145C9.19427 10.1145 9.62461 10.1111 10.0411 10.1075C11.0926 10.0989 12.1789 10.0886 13.2462 10.1353C13.5863 10.1492 13.8709 10.3243 14.0791 10.576C14.1921 10.7129 14.2821 10.8744 14.3465 11.0426H13.5377L13.5205 10.9871L13.2567 10.1769L13.0016 10.9594L12.9755 11.0426H12.0662L12.802 11.5769L12.5209 12.4407L13.2567 11.9066L13.9925 12.4407L13.7112 11.5769L14.3673 11.1015C14.4106 11.23 14.4384 11.3618 14.4487 11.4937C14.4714 11.7746 14.4661 12.0627 14.4609 12.368ZM7.77113 16.3268H4.05427V13.7488H7.77113V16.3268ZM7.76251 17.3262V20.0047C7.51263 20.0047 7.26632 20.008 7.02675 20.0133C6.45064 20.0238 5.90755 20.0324 5.36257 19.9908C4.6979 19.9387 4.24673 19.5206 4.12179 18.8425C4.061 18.5092 4.0507 18.1675 4.04018 17.805C4.03682 17.6488 4.03156 17.4892 4.02293 17.3262H7.76251ZM14.4298 18.7557C14.3828 19.1337 14.2093 19.4496 13.9264 19.6733L13.7112 19.0141L14.4487 18.4798H13.5377L13.4441 18.1883L13.2567 17.6141L13.0396 18.2802L12.9755 18.4798H12.0662L12.802 19.0141L12.5209 19.8781L13.2567 19.3436L13.8173 19.7513C13.5863 19.8989 13.2984 19.9908 12.9824 20.0133C12.7517 20.0291 12.5157 20.0291 12.2883 20.0291L12.1148 20.0272C11.3166 20.0291 10.5183 20.0291 9.68519 20.0291H8.78285V18.5109L9.47359 19.0141L9.19258 19.8781L9.92834 19.3436L10.6658 19.8781L10.3846 19.0141L11.1205 18.4798H10.2093L10.1488 18.2924L9.92834 17.6141L9.70791 18.2924L9.64712 18.4798H8.78285V17.3695H14.4403C14.4419 17.5014 14.4453 17.6366 14.4487 17.7686C14.4592 18.0948 14.4697 18.4295 14.4298 18.7557Z" fill="#D3B253"/>
<path d="M14.3798 16.2629H12.1544V13.7807H14.3798V16.2629Z" fill="#D3B253"/>
<path d="M14.394 11.1376L14.1785 11.4932L14.0961 12.2114L14.0891 12.2964L14.0524 12.7369C14.0524 12.7369 13.5479 12.7197 13.5322 12.7094C13.5322 12.7094 13.5286 12.7094 13.5252 12.7075C13.4832 12.7041 13.273 12.6936 13.0014 12.6799C12.4128 12.6555 11.5474 12.6208 11.5474 12.6208L10.8817 12.7632L10.7923 12.7821L10.7029 13.051L10.6418 13.2348L10.831 13.8385L11.1059 14.6853V16.3073H8.73062V10.1001H12.1937L13.3254 10.1523L13.9507 10.638L14.3344 11.0039C14.3344 11.0039 14.3501 11.0058 14.3713 11.0613C14.3747 11.0682 14.3764 11.0768 14.38 11.0873C14.3853 11.1012 14.3887 11.1185 14.394 11.1376ZM14.3484 19.0898C14.2242 19.4003 13.9683 19.7351 13.4481 19.9086C13.3271 19.9485 13.1923 19.9815 13.0398 20.0007C12.8226 20.0318 12.5704 20.0387 12.2814 20.0145L12.1062 20.0127H8.74272V17.3551H14.4535L14.4622 18.3906C14.4622 18.3906 14.4955 18.7237 14.3484 19.0898Z" fill="#D3B253"/>
<path d="M6.66563 6.94308L7.08747 8.27208L5.98304 7.45127L4.87671 8.27208L5.30046 6.94308L4.19412 6.12227H5.5612L5.98304 4.79328L6.40489 6.12227H7.77006L6.66563 6.94308ZM11.2972 6.95848L11.7191 8.28725L10.6147 7.46666L9.51022 8.28725L9.93207 6.95848L8.82573 6.13745H10.1928L10.6147 4.80867L11.0365 6.13745H12.4017L11.2972 6.95848ZM15.9286 6.97365L16.3507 8.30264L15.2463 7.48205L14.1418 8.30264L14.5637 6.97365L13.4573 6.15284H14.8242L15.2463 4.8258L15.6681 6.15284H17.0333L15.9286 6.97365Z" fill="white"/>
<path d="M116.603 38.4002C116.603 36.907 115.602 36.0418 113.667 36.0418H111.087V40.7581H113.667C115.602 40.7581 116.603 39.893 116.603 38.4002ZM118.826 38.4002C118.826 41.0127 116.891 42.6244 113.769 42.6244H111.087V46.0513H108.881V34.1759H113.769C116.891 34.1759 118.826 35.7705 118.826 38.4002ZM133.185 41.5725L130.945 36.3814L128.722 41.5725H133.185ZM133.915 43.3028H127.975L126.804 46.0513H124.53L129.876 34.1759H132.048L137.411 46.0513H135.103L133.915 43.3028ZM149.106 41.861V46.0513H146.9V41.8949L142.233 34.1759H144.592L148.071 39.9608L151.584 34.1759H153.756L149.106 41.861ZM171.713 46.0513L171.696 38.1795L167.793 44.6942H166.809L162.905 38.2812V46.0513H160.8V34.1759H162.617L167.335 42.0478L171.968 34.1759H173.784L173.801 46.0513H171.713ZM191.69 44.2022V46.0513H182.78V34.1759H191.452V36.0251H184.986V39.1124H190.722V40.9281H184.986V44.2022H191.69ZM210.478 34.1759V46.0513H208.662L202.112 38.0099V46.0513H199.922V34.1759H201.738L208.289 42.217V34.1759H210.478ZM221.851 36.0418H217.913V34.1759H227.994V36.0418H224.057V46.0513H221.851V36.0418ZM234.309 44.796L235.073 43.0825C236.023 43.8458 237.534 44.3885 238.993 44.3885C240.843 44.3885 241.623 43.7269 241.623 42.8447C241.623 40.2832 234.563 41.9628 234.563 37.5518C234.563 35.6348 236.091 34.0059 239.349 34.0059C240.775 34.0059 242.268 34.3794 243.303 35.0582L242.608 36.7717C241.539 36.144 240.367 35.8383 239.332 35.8383C237.499 35.8383 236.753 36.551 236.753 37.45C236.753 39.978 243.796 38.3323 243.796 42.6922C243.796 44.5924 242.252 46.2209 238.993 46.2209C237.143 46.2209 235.293 45.6439 234.309 44.796ZM108.797 20.1157V26.0019H88.0766V3.96456H95.1678V20.1157H108.797ZM137.441 20.5168V26.0019H114.285V3.96456H137.194V9.4508H121.408V12.1943H135.22V17.5265H121.408V20.5168H137.441ZM170.247 13.3347V26.0019H165.832L165.317 23.7832C164.619 24.2881 163.845 24.7212 163.01 25.0752C161.966 25.5177 160.81 25.8487 159.572 26.0573C158.34 26.2663 156.999 26.3715 155.587 26.3715C151.21 26.3715 147.867 25.4265 145.652 23.5613C143.415 21.6802 142.282 18.794 142.282 14.983C142.282 12.505 142.872 10.3877 144.035 8.69211C145.199 6.9954 146.897 5.70532 149.084 4.85619C151.24 4.01914 153.853 3.59496 156.85 3.59496C158.701 3.59496 160.447 3.76962 162.041 4.11349C163.645 4.45891 165.074 4.97627 166.288 5.65113C167.525 6.33925 168.497 7.21996 169.178 8.2691C169.867 9.32994 170.217 10.5826 170.217 11.9939V12.4099H163.28V11.9939C163.28 11.5171 163.135 11.1159 162.84 10.7686C162.523 10.3982 162.081 10.0882 161.526 9.84807C160.943 9.59583 160.27 9.40284 159.525 9.27536C158.77 9.14592 157.962 9.0812 157.128 9.0812C155.935 9.0812 154.848 9.20128 153.899 9.43793C152.968 9.67068 152.165 10.0274 151.513 10.4968C150.873 10.958 150.383 11.5327 150.056 12.2064C149.726 12.8855 149.559 13.6953 149.559 14.6138V15.353C149.559 16.6614 149.826 17.7305 150.353 18.5297C150.876 19.3238 151.658 19.918 152.678 20.2958C153.736 20.6876 155.057 20.8864 156.603 20.8864C158.024 20.8864 159.262 20.7605 160.283 20.5129C161.268 20.2736 162.026 19.9168 162.538 19.4529C162.949 19.0786 163.179 18.6685 163.235 18.2038H155.849V13.3347H170.247ZM186.257 17.1874L187.906 13.4649C188.054 13.1666 188.22 12.7838 188.396 12.3284C188.568 11.8828 188.759 11.4087 188.962 10.921C189.052 10.7046 189.137 10.4995 189.215 10.3073C189.222 10.3249 189.228 10.3444 189.236 10.3639C189.362 10.712 189.509 11.091 189.673 11.4883C189.837 11.8886 189.991 12.2684 190.134 12.6259C190.277 12.9818 190.392 13.2618 190.479 13.4567L192.132 17.1874H186.257ZM193.123 3.96456H185.606L174.775 26.0019H182.181L183.784 22.6116H194.605L196.208 26.0019H203.954L193.123 3.96456ZM233.086 16.787V17.203C233.086 19.0346 232.549 20.6646 231.49 22.0479C230.44 23.4175 228.943 24.4947 227.042 25.2479C225.161 25.9937 222.894 26.3715 220.306 26.3715C217.304 26.3715 214.759 25.9411 212.744 25.0908C210.697 24.2276 209.139 22.9321 208.11 21.2404C207.088 19.5593 206.57 17.4544 206.57 14.9834C206.57 11.3573 207.766 8.51745 210.126 6.54276C212.464 4.5864 215.899 3.59496 220.336 3.59496C222.803 3.59496 225.012 3.97274 226.903 4.71856C228.814 5.47179 230.33 6.5529 231.41 7.9307C232.502 9.32526 233.055 10.9931 233.055 12.8875V13.3031H226.119V12.8875C226.119 12.0972 225.893 11.4442 225.429 10.8886C224.955 10.3222 224.273 9.87692 223.403 9.56542C222.507 9.24378 221.444 9.0812 220.244 9.0812C218.836 9.0812 217.644 9.32058 216.7 9.79193C215.77 10.2567 215.054 10.9034 214.574 11.7128C214.091 12.5269 213.846 13.493 213.846 14.583V15.353C213.846 16.4443 214.091 17.4154 214.575 18.2408C215.056 19.0603 215.766 19.7118 216.686 20.1757C217.619 20.6471 218.784 20.8864 220.151 20.8864C221.459 20.8864 222.593 20.7321 223.522 20.4287C224.419 20.1359 225.114 19.7071 225.585 19.1527C226.047 18.6084 226.272 17.9706 226.272 17.203V16.787H233.086ZM265 3.96456L254.052 17.2899V26.0019H246.93V17.2899L235.983 3.96456H244.497L250.631 11.8348L256.826 3.96456H265Z" fill="#172D56"/>
</svg>
