<svg width="53" height="53" viewBox="0 0 53 53" fill="none" xmlns="http://www.w3.org/2000/svg">
<rect x="0.439941" y="0.310059" width="52" height="52" rx="26" fill="white"/>
<path d="M35.6333 16.9995C33.1782 14.5386 29.9087 13.1851 26.4341 13.1851C19.2622 13.1851 13.4263 19.021 13.4263 26.1929C13.4263 28.4839 14.0239 30.7222 15.1606 32.6968L13.3149 39.4351L20.2114 37.6245C22.1099 38.6616 24.2485 39.2065 26.4282 39.2065H26.4341C33.6001 39.2065 39.5649 33.3706 39.5649 26.1987C39.5649 22.7241 38.0884 19.4604 35.6333 16.9995ZM26.4341 37.0151C24.4888 37.0151 22.5845 36.4937 20.9263 35.5093L20.5337 35.2749L16.4438 36.3472L17.5337 32.3569L17.2759 31.9468C16.1919 30.2241 15.6235 28.2378 15.6235 26.1929C15.6235 20.2339 20.4751 15.3823 26.4399 15.3823C29.3286 15.3823 32.0415 16.5073 34.0806 18.5522C36.1196 20.5972 37.3735 23.3101 37.3677 26.1987C37.3677 32.1636 32.3931 37.0151 26.4341 37.0151ZM32.3638 28.9175C32.0415 28.7534 30.4419 27.9683 30.1431 27.8628C29.8442 27.7515 29.6274 27.6987 29.4106 28.0269C29.1938 28.355 28.5728 29.0815 28.3794 29.3042C28.1919 29.521 27.9985 29.5503 27.6763 29.3862C25.7661 28.4312 24.5122 27.6812 23.2524 25.519C22.9185 24.9448 23.5864 24.9858 24.2075 23.7437C24.313 23.5269 24.2603 23.3394 24.1782 23.1753C24.0962 23.0112 23.4458 21.4116 23.1763 20.7612C22.9126 20.1284 22.6431 20.2163 22.4438 20.2046C22.2563 20.1929 22.0396 20.1929 21.8228 20.1929C21.606 20.1929 21.2544 20.2749 20.9556 20.5972C20.6567 20.9253 19.8188 21.7104 19.8188 23.3101C19.8188 24.9097 20.9849 26.4565 21.1431 26.6733C21.3071 26.8901 23.4341 30.1714 26.6978 31.5835C28.7603 32.4741 29.5688 32.5503 30.6001 32.3979C31.2271 32.3042 32.522 31.6128 32.7915 30.8511C33.061 30.0894 33.061 29.439 32.979 29.3042C32.9028 29.1577 32.686 29.0757 32.3638 28.9175Z" fill="#D4AF37"/>
</svg>
