<svg width="2363" height="1315" viewBox="0 0 2363 1315" fill="none" xmlns="http://www.w3.org/2000/svg">
<path d="M380.948 1209.97C380.948 1190.02 367.573 1178.46 341.74 1178.46H307.292V1241.47H341.74C367.573 1241.47 380.948 1229.91 380.948 1209.97ZM410.635 1209.97C410.635 1244.87 384.797 1266.4 343.099 1266.4H307.292V1312.18H277.828V1153.54H343.099C384.797 1153.54 410.635 1174.84 410.635 1209.97ZM602.391 1252.35L572.474 1183L542.781 1252.35H602.391ZM612.135 1275.46H532.812L517.172 1312.18H486.802L558.193 1153.54H587.203L658.823 1312.18H628L612.135 1275.46ZM814.995 1256.2V1312.18H785.536V1256.66L723.208 1153.54H754.714L801.172 1230.82L848.083 1153.54H877.094L814.995 1256.2ZM1116.9 1312.18L1116.67 1207.02L1064.54 1294.05H1051.4L999.271 1208.38V1312.18H971.167V1153.54H995.422L1058.43 1258.7L1120.3 1153.54H1144.55L1144.78 1312.18H1116.9ZM1383.67 1287.48V1312.18H1264.68V1153.54H1380.5V1178.24H1294.15V1219.48H1370.75V1243.74H1294.15V1287.48H1383.67ZM1634.57 1153.54V1312.18H1610.32L1522.84 1204.76V1312.18H1493.6V1153.54H1517.85L1605.34 1260.96V1153.54H1634.57ZM1786.44 1178.46H1733.86V1153.54H1868.48V1178.46H1815.91V1312.18H1786.44V1178.46ZM1952.81 1295.41L1963.01 1272.52C1975.7 1282.72 1995.88 1289.97 2015.36 1289.97C2040.07 1289.97 2050.49 1281.13 2050.49 1269.34C2050.49 1235.12 1956.21 1257.56 1956.21 1198.64C1956.21 1173.03 1976.61 1151.27 2020.12 1151.27C2039.16 1151.27 2059.1 1156.26 2072.93 1165.32L2063.64 1188.21C2049.36 1179.83 2033.72 1175.74 2019.9 1175.74C1995.42 1175.74 1985.45 1185.27 1985.45 1197.28C1985.45 1231.05 2079.51 1209.06 2079.51 1267.31C2079.51 1292.69 2058.88 1314.45 2015.36 1314.45C1990.66 1314.45 1965.96 1306.74 1952.81 1295.41ZM276.698 965.703V1044.34H0V749.938H94.6979V965.703H276.698ZM659.219 971.062V1044.34H349.99V749.938H655.927V823.229H445.109V859.88H629.568V931.115H445.109V971.062H659.219ZM1097.32 875.115V1044.34H1038.36L1031.48 1014.7C1022.16 1021.44 1011.83 1027.23 1000.67 1031.96C986.734 1037.87 971.292 1042.29 954.76 1045.08C938.307 1047.87 920.401 1049.28 901.542 1049.28C843.089 1049.28 798.448 1036.65 768.87 1011.73C739.005 986.604 723.87 948.047 723.87 897.135C723.87 864.031 731.75 835.745 747.276 813.094C762.823 790.427 785.5 773.193 814.708 761.849C843.495 750.667 878.396 745 918.417 745C943.13 745 966.448 747.333 987.734 751.927C1009.15 756.542 1028.23 763.453 1044.45 772.469C1060.96 781.661 1073.95 793.427 1083.05 807.443C1092.24 821.615 1096.91 838.349 1096.91 857.203V862.76H1004.28V857.203C1004.28 850.833 1002.35 845.474 998.401 840.833C994.167 835.885 988.266 831.745 980.859 828.536C973.068 825.167 964.083 822.589 954.13 820.885C944.047 819.156 933.266 818.292 922.12 818.292C906.198 818.292 891.677 819.896 879 823.057C866.578 826.167 855.849 830.932 847.135 837.203C838.594 843.365 832.052 851.042 827.682 860.042C823.276 869.115 821.042 879.932 821.042 892.203V902.078C821.042 919.557 824.609 933.839 831.646 944.516C838.63 955.125 849.073 963.062 862.703 968.109C876.828 973.344 894.469 976 915.12 976C934.094 976 950.625 974.318 964.255 971.01C977.411 967.812 987.536 963.047 994.365 956.849C999.854 951.849 1002.93 946.37 1003.68 940.161H905.047V875.115H1097.32ZM1311.12 926.583L1333.15 876.854C1335.12 872.87 1337.33 867.755 1339.68 861.672C1341.97 855.719 1344.53 849.385 1347.24 842.87C1348.44 839.979 1349.58 837.24 1350.61 834.672C1350.71 834.906 1350.8 835.167 1350.9 835.427C1352.59 840.078 1354.55 845.141 1356.73 850.448C1358.92 855.797 1360.98 860.87 1362.9 865.646C1364.8 870.401 1366.34 874.141 1367.5 876.745L1389.57 926.583H1311.12ZM1402.81 749.938H1302.42L1157.79 1044.34H1256.69L1278.1 999.047H1422.6L1444.01 1044.34H1547.44L1402.81 749.938ZM1936.48 921.234V926.792C1936.48 951.26 1929.31 973.036 1915.16 991.516C1901.15 1009.81 1881.16 1024.2 1855.77 1034.27C1830.65 1044.23 1800.38 1049.28 1765.81 1049.28C1725.73 1049.28 1691.74 1043.53 1664.83 1032.17C1637.5 1020.64 1616.69 1003.33 1602.95 980.729C1589.3 958.271 1582.38 930.151 1582.38 897.141C1582.38 848.698 1598.35 810.76 1629.87 784.38C1661.09 758.245 1706.96 745 1766.22 745C1799.16 745 1828.66 750.047 1853.91 760.01C1879.43 770.073 1899.68 784.516 1914.1 802.922C1928.68 821.552 1936.07 843.833 1936.07 869.141V874.693H1843.44V869.141C1843.44 858.583 1840.43 849.859 1834.23 842.438C1827.9 834.87 1818.8 828.922 1807.17 824.76C1795.2 820.464 1781.01 818.292 1764.98 818.292C1746.18 818.292 1730.26 821.49 1717.66 827.786C1705.23 833.995 1695.68 842.635 1689.27 853.448C1682.82 864.323 1679.55 877.229 1679.55 891.792V902.078C1679.55 916.656 1682.82 929.63 1689.29 940.656C1695.7 951.604 1705.19 960.307 1717.47 966.505C1729.93 972.802 1745.49 976 1763.75 976C1781.21 976 1796.35 973.938 1808.76 969.885C1820.74 965.974 1830.02 960.245 1836.31 952.839C1842.48 945.568 1845.48 937.047 1845.48 926.792V921.234H1936.48ZM2362.67 749.938L2216.46 927.953V1044.34H2121.36V927.953L1975.17 749.938H2088.87L2170.79 855.078L2253.51 749.938H2362.67Z" fill="black"/>
<path d="M998.507 251.241C1005.44 254.734 1012.16 258.64 1019.51 262.706C1011.05 268.283 996.009 265.387 992.366 258.169C991.32 256.038 991.977 253.07 991.87 250.49C994.086 250.692 996.631 250.307 998.507 251.241ZM1031.92 246.013V248.665C1031.2 247.79 1030.5 246.909 1029.81 246.013H1031.92ZM1753.72 0C1764.12 15.8508 1770.63 31.9889 1773.95 49.3332C1785.84 111.451 1765.92 163.857 1723.7 208.763C1689.67 244.961 1647.02 269.287 1604 292.911C1559.48 317.36 1514.27 340.663 1470.71 366.712C1424.3 394.47 1387.4 432.042 1368.95 484.232C1361.6 505.056 1357.65 527.086 1352.16 548.567C1353.1 548.883 1354.05 549.195 1355 549.508C1356 547.812 1357.11 546.174 1357.99 544.415C1375.88 508.249 1396.66 474.075 1426.53 446.323C1453.92 420.88 1485.49 401.527 1518.6 384.631C1565.09 360.899 1612.1 338.137 1658.26 313.776C1690.44 296.798 1720.61 276.315 1745.04 248.968C1758.58 233.812 1770.02 216.78 1782.86 199.995C1783.21 217.699 1784.62 236.01 1783.68 254.2C1782.32 280.78 1776.54 306.621 1765.58 331.092C1750.56 364.587 1724.7 387.843 1693.9 406.125C1654.6 429.446 1611.49 444.312 1569.25 461.021C1526.1 478.091 1483.27 495.615 1444.76 522.186C1405.79 549.079 1378.48 584.932 1361.66 629.258C1365.72 624.711 1369.82 620.186 1373.86 615.614C1418.2 565.368 1475.17 535.192 1537.14 513.061C1578.08 498.438 1619.27 484.501 1660.12 469.616C1688.12 459.414 1713.09 443.709 1736.63 423.245C1732.06 452.247 1720.32 476.664 1704.75 499.55C1676.1 541.674 1635.76 567.531 1588.09 582.763C1543.28 597.079 1497.78 609.346 1453.37 624.765C1387.66 647.578 1327.64 681.357 1273.26 724.88C1267.2 729.727 1260.93 734.568 1255.92 740.403C1250.66 746.519 1246.06 746.149 1239.45 742.932C1203.5 725.411 1167.42 708.123 1131.24 691.06C1093.84 673.419 1056.27 656.128 1018.35 638.487C1064.45 613.688 1105.97 582.934 1138.04 540.408C1140.58 557.727 1129.24 609.473 1108.63 649.336C1170.73 624.588 1220.11 587.777 1248.68 526.906C1265.69 538.103 1283.82 567.755 1289.45 591.822C1293.74 576.063 1299.26 560.518 1302.03 544.497C1307.4 513.509 1311.3 482.265 1315.65 451.107C1324.39 388.499 1351.71 336.631 1401.68 296.659C1449.65 258.28 1502.93 228.514 1555.68 197.718C1595.12 174.69 1633.87 150.554 1668.7 120.728C1706.93 88.0003 1736.87 49.368 1753.72 0Z" fill="black"/>
<path d="M1028.24 243.951C1028.76 244.649 1029.28 245.334 1029.81 246.013C1030.5 246.91 1031.2 247.791 1031.92 248.665C1052 273.408 1078.14 289.227 1106.2 303.057C1116.99 308.377 1127.56 314.051 1140.12 320.565C1115.74 316.29 1093.83 311.705 1071.71 308.788C1033.52 303.761 996.502 309.467 961.204 324.68C945.028 331.664 926.25 352.188 920.276 383.138C916.632 378.241 913.093 374.805 911.11 370.634C892.559 331.348 903.715 280.029 937.188 249.732C949.354 238.738 961.573 228.037 978.428 224.488C999.445 220.09 1016.48 228.214 1028.24 243.951ZM1097.29 236.442C1098 229.935 1098.76 223.446 1099.72 214.981C1104.3 222.038 1108.18 227.747 1111.78 233.607C1115.66 239.909 1121.08 244.526 1128.5 244.08C1136.32 243.588 1141.66 238.198 1144.01 230.872C1146.48 223.137 1147.99 215.088 1149.91 207.166C1162.4 210.165 1162.24 225.296 1159.65 236.547C1156.61 249.755 1145.02 253.484 1134 255.697C1126.39 257.232 1117.95 256.246 1110.19 254.816C1101.12 253.117 1096.36 245.328 1097.29 236.442ZM964.93 341.25C1015.84 325.229 1066.95 321.923 1118.37 338.566C1067.13 332.835 1015.99 335.286 964.93 341.25ZM879.433 123.602L885.714 104.24L869.231 92.2854H889.594L895.881 72.9581L902.161 92.2854H922.499L906.051 104.24L912.332 123.602L895.881 111.644L879.433 123.602ZM884.776 185.202C884.719 187.289 884.694 189.424 884.672 191.694H834.675V244.573H799.352V151.366C805.711 151.366 812.172 151.319 818.42 151.262C834.205 151.132 850.52 150.978 866.538 151.682C871.647 151.884 875.916 154.52 879.045 158.294C880.734 160.355 882.092 162.78 883.055 165.303H883.014C883.087 165.423 883.159 165.584 883.238 165.796C883.289 165.9 883.311 166.029 883.368 166.191C884.015 168.113 884.435 170.096 884.59 172.076C884.927 176.295 884.855 180.62 884.776 185.202ZM849.475 205.758H883.942V244.235H849.475V205.758ZM884.637 277.127C884.574 278.469 884.47 279.802 884.305 281.128C884.283 281.346 884.249 281.563 884.211 281.775C883.952 283.18 883.538 284.749 882.9 286.357C881.751 289.252 879.844 292.29 876.718 294.803C876.191 295.223 875.632 295.627 875.035 296.016C873.459 297.042 871.631 297.942 869.506 298.658C869.055 298.807 868.594 298.952 868.123 299.088C867.937 299.135 867.744 299.192 867.558 299.242C865.966 299.631 864.299 299.89 862.578 300.01C859.111 300.243 855.572 300.243 852.159 300.243L849.557 300.221H799.538V260.313H884.46L884.59 275.864C884.59 275.864 884.637 276.319 884.637 277.102V277.127ZM768.07 103.798L774.357 123.147L757.9 111.193L741.427 123.147L747.739 103.798L731.257 91.8402H751.62L757.9 72.4813L764.19 91.8402H784.518L768.07 103.798ZM784.347 191.201H727.847C727.847 189.057 727.79 186.98 727.765 184.968C727.66 180.387 727.588 176.061 727.951 171.817C728.867 160.895 737.174 152.149 747.303 151.448C755.797 150.848 764.212 150.978 773.122 151.107C776.766 151.189 780.574 151.236 784.347 151.236V191.201ZM784.347 244.655H728.551V205.944H784.347V244.655ZM784.218 299.88C780.47 299.88 776.766 299.928 773.17 300.01C764.528 300.171 756.372 300.3 748.194 299.669C738.216 298.895 731.443 292.615 729.568 282.429C728.655 277.424 728.494 272.293 728.339 266.853C728.292 264.507 728.21 262.107 728.08 259.657H784.218V299.88ZM820.612 92.058L826.892 72.7087L833.179 92.058H853.51L837.059 104.016L843.34 123.374L826.892 111.42L810.441 123.374L816.722 104.016L800.249 92.058H820.612ZM1423.99 220.503C1423.63 218.343 1423.99 216.073 1423.94 213.834C1423.31 190.264 1424.98 166.345 1421.63 143.163C1413.15 84.8904 1360.35 41.225 1301.22 41.225C1130.93 41.1997 909.73 41.1744 739.413 41.2786C733.366 41.2786 727.225 41.847 721.307 42.9932C692.419 48.5473 668.005 78.3986 668.005 107.887C668.005 246.505 667.983 385.143 668.03 523.787C668.062 563.774 702.321 597.847 742.277 597.869C815.607 597.894 939.872 597.74 1013.2 598.081C1022.47 598.106 1028.73 596.05 1034.8 588.283C1073.07 539.388 1095.58 485.464 1090.57 422.187C1090.08 415.932 1089.27 409.709 1088.52 402.336C1128.24 428.881 1162.18 459.105 1180.08 504.015C1183 438.022 1154.3 388.869 1100.5 353.65C1127.78 352.115 1155.07 350.603 1183.66 349.011C1180.74 343.489 1178.55 338.487 1175.6 333.95C1162.84 314.181 1144.73 300.171 1125.35 287.481C1116.85 281.936 1108.83 275.703 1100.57 269.795C1100.89 269.091 1101.17 268.387 1101.49 267.686C1127.22 272.865 1153.15 276.123 1171.28 251.842C1180.74 239.183 1185.66 224.018 1176.31 207.715C1202.36 205.42 1228.1 203.156 1253.86 200.885C1243.54 196.228 1233.15 194.532 1223.46 190.968C1183.76 176.399 1144.31 179.762 1104.69 191.04C1084.32 196.828 1063.9 202.502 1043.21 206.907C1027.64 210.213 1012.26 206.414 994.086 201.514C1002.44 191.403 1008.77 182.445 1016.4 174.76C1054.08 136.882 1101.21 119.971 1153.17 114.555C1180.29 111.742 1207.39 112.468 1234.5 115.938C1265.71 119.923 1295.67 127.609 1323.63 142.168C1339.46 150.428 1354.28 160.251 1368.41 174.71H1343.76C1364.39 202.581 1385.07 230.484 1405.4 257.936C1421.33 251.267 1426.96 238.059 1423.99 220.503Z" fill="black"/>
</svg>
